<?xml version="1.0" encoding="utf-8"?>
<!-- Generator: Adobe Illustrator 27.5.0, SVG Export Plug-In . SVG Version: 6.00 Build 0)  -->
<svg version="1.1" id="Layer_1" xmlns="http://www.w3.org/2000/svg" xmlns:xlink="http://www.w3.org/1999/xlink" x="0px" y="0px"
	 viewBox="0 0 200 200" style="enable-background:new 0 0 200 200;" xml:space="preserve">
<style type="text/css">
	.st0{fill:#FFFFFF;}
	.st1{fill:#42505E;}
	.st2{fill:#8592FA;}
</style>
<g>
	<g>
		<rect x="96.7" y="46" class="st0" width="6.6" height="15.9"/>
		<path class="st0" d="M100,41.7c-9.6,0-17.3-7.8-17.3-17.3S90.4,7,100,7c9.6,0,17.3,7.8,17.3,17.3C117.3,33.9,109.6,41.7,100,41.7z
			 M100,13.6c-5.9,0-10.7,4.8-10.7,10.7S94.1,35,100,35s10.7-4.8,10.7-10.7S105.9,13.6,100,13.6z"/>
	</g>
	<g>
		<rect x="56.9" y="69" transform="matrix(0.5 -0.866 0.866 0.5 -36.6065 90.6214)" class="st0" width="6.6" height="15.9"/>
		<path class="st0" d="M34.5,79.5L34.5,79.5c-3,0-6-0.8-8.6-2.3c-4-2.3-6.9-6.1-8.1-10.5c-1.2-4.5-0.6-9.1,1.7-13.2
			c3.1-5.3,8.9-8.7,15-8.7c3,0,6,0.8,8.7,2.3c8.3,4.8,11.1,15.4,6.3,23.7C46.4,76.2,40.6,79.5,34.5,79.5z M34.5,51.5
			c-3.8,0-7.4,2-9.3,5.3c-1.4,2.5-1.8,5.3-1.1,8.1c0.7,2.8,2.5,5.1,5,6.5c1.6,0.9,3.5,1.4,5.3,1.4c3.8,0,7.4-2.1,9.3-5.3
			c3-5.1,1.2-11.7-3.9-14.6C38.2,52,36.3,51.5,34.5,51.5z"/>
	</g>
	<g>
		<rect x="52.2" y="119.7" transform="matrix(0.866 -0.5 0.5 0.866 -53.4312 46.5684)" class="st0" width="15.9" height="6.6"/>
		<path class="st0" d="M34.5,155.2L34.5,155.2c-6.2,0-11.9-3.3-15-8.7c-4.8-8.3-1.9-18.9,6.3-23.7c2.6-1.5,5.6-2.3,8.6-2.3
			c6.2,0,11.9,3.3,15,8.7c4.8,8.3,1.9,18.9-6.3,23.7C40.5,154.4,37.5,155.2,34.5,155.2z M34.5,127.1c-1.9,0-3.7,0.5-5.3,1.4
			c-5.1,2.9-6.9,9.5-3.9,14.6c1.9,3.3,5.5,5.4,9.3,5.4l0,0c1.9,0,3.7-0.5,5.3-1.4c5.1-2.9,6.9-9.5,3.9-14.6
			C41.8,129.2,38.3,127.1,34.5,127.1z"/>
	</g>
	<g>
		<rect x="96.7" y="138" class="st0" width="6.6" height="15.9"/>
		<path class="st0" d="M100,193L100,193L100,193L100,193c-9.6,0-17.3-7.8-17.3-17.3c0-9.6,7.8-17.3,17.3-17.3
			c9.6,0,17.3,7.8,17.3,17.3c0,4.6-1.8,9-5.1,12.3C109,191.2,104.6,193,100,193z M100,165c-5.9,0-10.7,4.8-10.7,10.7
			s4.8,10.7,10.7,10.7l0,0l0,0c2.8,0,5.5-1.1,7.6-3.1c2-2,3.1-4.7,3.1-7.6C110.7,169.8,105.9,165,100,165z"/>
	</g>
	<g>
		<rect x="136.5" y="115" transform="matrix(0.5 -0.866 0.866 0.5 -36.608 182.58)" class="st0" width="6.6" height="15.9"/>
		<path class="st0" d="M165.5,155.2L165.5,155.2c-3,0-6-0.8-8.7-2.3c-8.3-4.8-11.1-15.4-6.4-23.7c3.1-5.3,8.9-8.7,15-8.7
			c3,0,6,0.8,8.6,2.3c4,2.3,6.9,6.1,8.1,10.5s0.6,9.1-1.7,13.1C177.4,151.8,171.7,155.2,165.5,155.2z M165.5,127.1
			c-3.8,0-7.4,2.1-9.3,5.4c-2.9,5.1-1.2,11.7,3.9,14.6c1.6,0.9,3.5,1.4,5.3,1.4c3.8,0,7.4-2.1,9.3-5.4c1.4-2.5,1.8-5.4,1.1-8.1
			c-0.7-2.8-2.5-5.1-5-6.5C169.2,127.6,167.4,127.1,165.5,127.1z"/>
	</g>
	<g>
		
			<rect x="131.9" y="73.7" transform="matrix(0.866 -0.5001 0.5001 0.866 -19.7717 80.2451)" class="st0" width="15.9" height="6.6"/>
		<path class="st0" d="M165.5,79.5L165.5,79.5c-6.2,0-11.9-3.3-15-8.7c-4.8-8.3-1.9-18.9,6.3-23.7c2.6-1.5,5.6-2.3,8.7-2.3
			c6.2,0,11.9,3.3,15,8.7c2.3,4,2.9,8.7,1.7,13.2s-4.1,8.2-8.1,10.5C171.6,78.7,168.6,79.5,165.5,79.5z M165.5,51.5
			c-1.9,0-3.7,0.5-5.3,1.4c-5.1,3-6.9,9.5-3.9,14.6c1.9,3.3,5.5,5.3,9.3,5.3l0,0c1.9,0,3.7-0.5,5.3-1.4c2.5-1.4,4.2-3.7,5-6.5
			c0.7-2.8,0.4-5.6-1.1-8.1C172.9,53.5,169.3,51.5,165.5,51.5z"/>
	</g>
</g>
<g>
	<path class="st1" d="M23.1,118.2c-1.4-5.9-2.1-12-2.1-18.2c0-6.2,0.7-12.3,2.1-18.2l6.5,1.5c-1.3,5.4-1.9,11-1.9,16.7
		s0.6,11.3,1.9,16.7L23.1,118.2z"/>
	<path class="st1" d="M122.7,175.7l-1.9-6.4c10.7-3.2,20.6-8.9,28.8-16.6l4.6,4.8C145.2,165.9,134.4,172.2,122.7,175.7z"/>
	<path class="st1" d="M149.6,47.4c-8.1-7.7-18.1-13.5-28.8-16.7l1.9-6.4c11.7,3.5,22.5,9.8,31.5,18.2L149.6,47.4z"/>
	<path class="st1" d="M176.9,118.2l-6.5-1.5c1.3-5.4,1.9-11,1.9-16.7c0-5.7-0.6-11.3-1.9-16.7l6.5-1.5c1.4,5.9,2.1,12,2.1,18.2
		C179,106.2,178.3,112.3,176.9,118.2z"/>
	<path class="st1" d="M77.3,175.7c-11.7-3.5-22.5-9.8-31.4-18.2l4.6-4.8c8.2,7.7,18.1,13.4,28.8,16.6L77.3,175.7z"/>
	<path class="st1" d="M50.4,47.3l-4.6-4.8c8.9-8.4,19.8-14.7,31.4-18.2l1.9,6.4C68.5,33.9,58.6,39.7,50.4,47.3z"/>
</g>
<g>
	<path class="st2" d="M100,66.4c-18.6,0-33.6,15-33.6,33.6c0,18.6,15,33.6,33.6,33.6c18.6,0,33.6-15.1,33.6-33.6
		S118.6,66.4,100,66.4z M95.1,118.2l-14.8-14.8l6-6c0,0,5.5,5.6,8.8,9c4.6-4.6,20.7-20.8,20.7-20.8l5.9,5.9L95.1,118.2z"/>
</g>
</svg>
