<?xml version="1.0" encoding="utf-8"?>
<!-- Generator: Adobe Illustrator 27.4.0, SVG Export Plug-In . SVG Version: 6.00 Build 0)  -->
<svg version="1.1" id="Layer_1" xmlns="http://www.w3.org/2000/svg" xmlns:xlink="http://www.w3.org/1999/xlink" x="0px" y="0px"
	 viewBox="0 0 200 200" style="enable-background:new 0 0 200 200;" xml:space="preserve">
<style type="text/css">
	.st0{fill:#FFFFFF;}
	.st1{fill:#8592FA;}
	.st2{fill:#42505E;}
</style>
<g>
	<g>
		<path class="st0" d="M180.58,94.11h-6.2v-4.48l-17.15-2.63l-0.36-2.22c-0.61-3.76-1.6-7.46-2.94-11.01l-0.8-2.1l13.53-10.85
			l-4.48-7.77l-16.17,6.29l-1.43-1.74c-2.41-2.94-5.12-5.65-8.06-8.07l-1.74-1.42l6.29-16.17l-7.77-4.48l-10.85,13.53l-2.11-0.79
			c-3.55-1.34-7.26-2.33-11.02-2.94l-2.22-0.36l-2.63-17.15h-8.97l-2.63,17.15l-2.22,0.36c-3.76,0.61-7.46,1.6-11.02,2.94l-2.1,0.79
			L66.69,27.45l-7.77,4.48l6.29,16.17l-1.74,1.42c-2.94,2.41-5.66,5.13-8.06,8.07l-1.43,1.74l-16.17-6.29l-4.48,7.77l13.53,10.85
			l-0.8,2.1c-1.34,3.55-2.33,7.26-2.94,11.01l-0.36,2.22l-17.15,2.63v4.48h-6.2v-9.8l18-2.76c0.53-2.66,1.23-5.28,2.1-7.85
			l-14.2-11.39l9.8-16.98l16.97,6.61c1.79-2.03,3.71-3.95,5.74-5.74l-6.61-16.97l16.98-9.81l11.39,14.2
			c2.56-0.86,5.19-1.56,7.85-2.1l2.76-18h19.61l2.76,18c2.66,0.53,5.28,1.23,7.85,2.1l11.39-14.2l16.98,9.81l-6.61,16.97
			c2.03,1.79,3.95,3.71,5.74,5.74l16.97-6.61l9.8,16.98l-14.2,11.39c0.86,2.56,1.57,5.19,2.1,7.85l18,2.76V94.11z"/>
		<path class="st1" d="M81.41,94.11c0-10.27,8.32-18.59,18.59-18.59c10.27,0,18.59,8.32,18.59,18.59h25.58
			c0-24.4-19.78-44.17-44.17-44.17c-24.4,0-44.17,19.77-44.17,44.17H81.41z"/>
		<path class="st0" d="M121.69,94.11h-6.2c0-8.54-6.95-15.49-15.49-15.49c-8.54,0-15.49,6.95-15.49,15.49h-6.2
			c0-11.96,9.73-21.69,21.69-21.69C111.96,72.42,121.69,82.15,121.69,94.11z"/>
	</g>
	<rect x="19.42" y="109.61" class="st2" width="117.98" height="6.2"/>
	<rect x="158.48" y="109.61" class="st2" width="22.11" height="6.2"/>
	<path class="st0" d="M141.74,123.25c-5.81,0-10.54-4.73-10.54-10.54c0-5.81,4.73-10.54,10.54-10.54c5.81,0,10.54,4.73,10.54,10.54
		C152.28,118.52,147.55,123.25,141.74,123.25z M141.74,108.37c-2.39,0-4.34,1.95-4.34,4.34c0,2.39,1.95,4.34,4.34,4.34
		c2.39,0,4.34-1.95,4.34-4.34C146.08,110.31,144.13,108.37,141.74,108.37z"/>
	<rect x="19.42" y="130.68" class="st2" width="81.2" height="6.2"/>
	<rect x="121.7" y="130.68" class="st2" width="58.89" height="6.2"/>
	<path class="st0" d="M104.96,144.32c-5.81,0-10.54-4.73-10.54-10.54c0-5.81,4.73-10.54,10.54-10.54s10.54,4.73,10.54,10.54
		C115.5,139.59,110.77,144.32,104.96,144.32z M104.96,129.44c-2.39,0-4.34,1.95-4.34,4.34c0,2.39,1.95,4.34,4.34,4.34
		c2.39,0,4.34-1.95,4.34-4.34C109.3,131.39,107.35,129.44,104.96,129.44z"/>
	<rect x="19.42" y="151.76" class="st2" width="21.49" height="6.2"/>
	<rect x="61.98" y="151.76" class="st2" width="118.6" height="6.2"/>
	<path class="st0" d="M45.24,165.4c-5.81,0-10.54-4.73-10.54-10.54c0-5.81,4.73-10.54,10.54-10.54c5.81,0,10.54,4.73,10.54,10.54
		C55.78,160.67,51.05,165.4,45.24,165.4z M45.24,150.52c-2.39,0-4.34,1.95-4.34,4.34c0,2.39,1.95,4.34,4.34,4.34
		c2.39,0,4.34-1.95,4.34-4.34C49.58,152.47,47.64,150.52,45.24,150.52z"/>
	<rect x="19.42" y="172.84" class="st2" width="68.6" height="6.2"/>
	<rect x="109.09" y="172.84" class="st2" width="71.49" height="6.2"/>
	<path class="st0" d="M92.35,186.47c-5.81,0-10.54-4.73-10.54-10.54c0-5.81,4.73-10.54,10.54-10.54c5.81,0,10.54,4.73,10.54,10.54
		C102.89,181.75,98.17,186.47,92.35,186.47z M92.35,171.6c-2.39,0-4.34,1.95-4.34,4.34s1.95,4.34,4.34,4.34
		c2.39,0,4.34-1.95,4.34-4.34S94.75,171.6,92.35,171.6z"/>
</g>
</svg>
