<?xml version="1.0" encoding="utf-8"?>
<!-- Generator: Adobe Illustrator 27.4.0, SVG Export Plug-In . SVG Version: 6.00 Build 0)  -->
<svg version="1.1" id="Layer_1" xmlns="http://www.w3.org/2000/svg" xmlns:xlink="http://www.w3.org/1999/xlink" x="0px" y="0px"
	 viewBox="0 0 200 200" style="enable-background:new 0 0 200 200;" xml:space="preserve">
<style type="text/css">
	.st0{fill:#8592FA;}
	.st1{fill:#FFFFFF;}
	.st2{fill:#42505E;}
</style>
<g>
	<path class="st0" d="M100,66.37c-18.57,0-33.63,15.05-33.63,33.63c0,18.57,15.05,33.63,33.63,33.63
		c18.57,0,33.63-15.06,33.63-33.63C133.63,81.43,118.57,66.37,100,66.37z M100,78.74c5.61,0,10.14,4.55,10.14,10.14
		c0,5.6-4.53,10.15-10.14,10.15c-5.6,0-10.15-4.55-10.15-10.15C89.86,83.29,94.4,78.74,100,78.74z M116.69,118.6H83.31v-6.03
		c0-2.49,0.95-4.98,2.86-6.88c1.9-1.9,4.39-2.86,6.89-2.86h13.9c2.49,0,4.98,0.96,6.89,2.86c1.91,1.9,2.85,4.39,2.85,6.88V118.6z"/>
	<g>
		<g>
			<rect x="96.68" y="46.05" class="st1" width="6.64" height="15.94"/>
			<path class="st1" d="M100,41.67c-9.56,0-17.33-7.77-17.33-17.33c0-9.56,7.78-17.33,17.33-17.33c9.56,0,17.33,7.78,17.33,17.33
				C117.33,33.9,109.56,41.67,100,41.67z M100,13.65c-5.89,0-10.69,4.8-10.69,10.69c0,5.89,4.8,10.69,10.69,10.69
				c5.89,0,10.69-4.8,10.69-10.69C110.69,18.45,105.9,13.65,100,13.65z"/>
		</g>
		<g>
			<rect x="56.86" y="69.04" transform="matrix(0.5 -0.866 0.866 0.5 -36.6023 90.6242)" class="st1" width="6.64" height="15.94"/>
			<path class="st1" d="M34.46,79.5L34.46,79.5c-3.03,0-6.02-0.8-8.65-2.32c-4.01-2.31-6.88-6.05-8.08-10.53
				c-1.2-4.47-0.58-9.14,1.73-13.15c3.09-5.35,8.85-8.67,15.02-8.67c3.03,0,6.02,0.8,8.66,2.33c8.28,4.78,11.12,15.4,6.34,23.68
				C46.4,76.18,40.64,79.5,34.46,79.5z M34.49,51.48c-3.81,0-7.36,2.05-9.27,5.35c-1.43,2.47-1.81,5.35-1.07,8.11
				c0.74,2.76,2.51,5.06,4.98,6.49c1.62,0.94,3.47,1.43,5.33,1.43c3.81,0,7.37-2.05,9.27-5.35c2.95-5.11,1.19-11.66-3.91-14.6
				C38.2,51.97,36.35,51.48,34.49,51.48z"/>
		</g>
		<g>
			
				<rect x="52.21" y="119.67" transform="matrix(0.866 -0.5 0.5 0.866 -53.4308 46.5664)" class="st1" width="15.94" height="6.64"/>
			<path class="st1" d="M34.49,155.16C34.49,155.16,34.49,155.16,34.49,155.16c-6.18,0-11.94-3.32-15.02-8.67
				c-4.78-8.28-1.93-18.9,6.34-23.68c2.64-1.52,5.63-2.33,8.65-2.33c6.18,0,11.94,3.32,15.02,8.67c4.78,8.28,1.93,18.9-6.35,23.68
				C40.51,154.36,37.52,155.16,34.49,155.16z M34.46,127.14c-1.86,0-3.71,0.5-5.33,1.43c-5.1,2.95-6.86,9.5-3.91,14.6
				c1.9,3.3,5.46,5.35,9.27,5.35h0c1.86,0,3.71-0.5,5.33-1.44c5.1-2.95,6.86-9.5,3.91-14.61C41.83,129.19,38.28,127.14,34.46,127.14
				z"/>
		</g>
		<g>
			<rect x="96.68" y="138.01" class="st1" width="6.64" height="15.94"/>
			<path class="st1" d="M100,192.99L100,192.99L100,192.99L100,192.99c-9.56,0-17.34-7.77-17.34-17.33
				c0-9.55,7.78-17.33,17.33-17.33c9.56,0,17.33,7.78,17.33,17.33c0,4.63-1.8,8.99-5.08,12.26
				C108.98,191.19,104.63,192.99,100,192.99z M100,164.97c-5.89,0-10.69,4.8-10.69,10.69c0,5.89,4.8,10.69,10.69,10.69h0h0
				c2.85,0,5.53-1.11,7.55-3.13c2.02-2.02,3.13-4.7,3.13-7.56C110.69,169.77,105.89,164.97,100,164.97z"/>
		</g>
		<g>
			
				<rect x="136.5" y="115.02" transform="matrix(0.5 -0.866 0.866 0.5 -36.6021 182.583)" class="st1" width="6.64" height="15.94"/>
			<path class="st1" d="M165.51,155.17L165.51,155.17c-3.03,0-6.02-0.8-8.66-2.33c-8.27-4.78-11.12-15.4-6.35-23.68
				c3.09-5.35,8.85-8.67,15.02-8.67c3.03,0,6.02,0.8,8.65,2.33c4.01,2.31,6.88,6.05,8.08,10.52c1.2,4.47,0.58,9.14-1.73,13.15
				C177.44,151.84,171.69,155.17,165.51,155.17z M165.54,127.14c-3.81,0-7.37,2.05-9.27,5.35c-2.95,5.11-1.19,11.66,3.92,14.6
				c1.63,0.94,3.47,1.44,5.33,1.44c3.81,0,7.36-2.05,9.27-5.35c1.43-2.47,1.81-5.35,1.07-8.11c-0.74-2.76-2.51-5.06-4.98-6.49
				C169.24,127.63,167.4,127.14,165.54,127.14z"/>
		</g>
		<g>
			
				<rect x="131.85" y="73.69" transform="matrix(0.866 -0.5001 0.5001 0.866 -19.7731 80.243)" class="st1" width="15.94" height="6.64"/>
			<path class="st1" d="M165.54,79.51L165.54,79.51c-6.18,0-11.93-3.32-15.02-8.67c-4.78-8.28-1.93-18.9,6.34-23.68
				c2.64-1.52,5.63-2.33,8.66-2.33c6.18,0,11.93,3.32,15.02,8.67c2.32,4.01,2.93,8.68,1.73,13.15c-1.2,4.47-4.07,8.21-8.08,10.52
				C171.56,78.7,168.57,79.51,165.54,79.51z M165.51,51.48c-1.86,0-3.71,0.5-5.33,1.44c-5.1,2.95-6.86,9.5-3.91,14.6
				c1.9,3.3,5.46,5.35,9.27,5.35l0,0c1.86,0,3.71-0.5,5.33-1.43c2.47-1.43,4.24-3.73,4.98-6.49c0.74-2.76,0.36-5.64-1.07-8.11
				C172.88,53.53,169.33,51.48,165.51,51.48z"/>
		</g>
	</g>
	<g>
		<path class="st2" d="M23.13,118.18c-1.4-5.89-2.11-12.01-2.11-18.18c0-6.18,0.71-12.29,2.11-18.18l6.46,1.53
			c-1.28,5.39-1.93,10.99-1.93,16.65c0,5.66,0.65,11.26,1.93,16.65L23.13,118.18z"/>
		<path class="st2" d="M122.7,175.66l-1.91-6.36c10.67-3.19,20.62-8.95,28.8-16.65l4.55,4.84
			C145.23,165.89,134.35,172.18,122.7,175.66z"/>
		<path class="st2" d="M149.6,47.36c-8.15-7.7-18.1-13.46-28.79-16.66l1.91-6.36c11.67,3.5,22.55,9.79,31.45,18.2L149.6,47.36z"/>
		<path class="st2" d="M176.87,118.18l-6.46-1.54c1.28-5.39,1.93-10.99,1.93-16.65c0-5.66-0.65-11.26-1.93-16.65l6.46-1.53
			c1.4,5.89,2.11,12.01,2.11,18.18C178.98,106.17,178.27,112.29,176.87,118.18z"/>
		<path class="st2" d="M77.29,175.66c-11.67-3.49-22.54-9.78-31.44-18.18l4.56-4.83c8.16,7.69,18.12,13.45,28.79,16.65L77.29,175.66
			z"/>
		<path class="st2" d="M50.4,47.35l-4.56-4.83c8.91-8.4,19.78-14.69,31.44-18.18l1.91,6.36C68.51,33.9,58.56,39.66,50.4,47.35z"/>
	</g>
</g>
</svg>
