<svg width="71" height="69" xmlns="http://www.w3.org/2000/svg" xml:space="preserve" version="1.1">

 <g>
  <title>Layer 1</title>
  <g id="svg_1">
   <path id="svg_2" fill="#FFFFFF" d="m36,1.37c-18.57,0 -33.63,15.05 -33.63,33.63c0,18.57 15.05,33.63 33.63,33.63c18.57,0 33.63,-15.06 33.63,-33.63c0,-18.57 -15.06,-33.63 -33.63,-33.63zm0,12.37c5.61,0 10.14,4.55 10.14,10.14c0,5.6 -4.53,10.15 -10.14,10.15c-5.6,0 -10.15,-4.55 -10.15,-10.15c0.01,-5.59 4.55,-10.14 10.15,-10.14zm16.69,39.86l-33.38,0l0,-6.03c0,-2.49 0.95,-4.98 2.86,-6.88c1.9,-1.9 4.39,-2.86 6.89,-2.86l13.9,0c2.49,0 4.98,0.96 6.89,2.86c1.91,1.9 2.85,4.39 2.85,6.88l0,6.03l-0.01,0z" class="st1"/>
  </g>
 </g>
</svg>