<?xml version="1.0" encoding="utf-8"?>
<!-- Generator: Adobe Illustrator 27.4.0, SVG Export Plug-In . SVG Version: 6.00 Build 0)  -->
<svg version="1.1" id="Layer_1" xmlns="http://www.w3.org/2000/svg" xmlns:xlink="http://www.w3.org/1999/xlink" x="0px" y="0px"
	 viewBox="0 0 200 200" style="enable-background:new 0 0 200 200;" xml:space="preserve">
<style type="text/css">
	.st0{fill:#8592FA;}
	.st1{fill:#FFFFFF;}
	.st2{fill:#42505E;}
</style>
<g>
	<g>
		<polygon class="st0" points="112.75,133.43 135.95,133.43 110.74,55.75 91.97,69.36 		"/>
		<path class="st1" d="M72.36,157.1c-3.51,0-7-0.83-10.22-2.48c-5.36-2.74-9.34-7.4-11.2-13.13c-0.87-2.69-1.23-5.46-1.06-8.23
			l5.73,0.35c-0.12,2.05,0.14,4.1,0.79,6.11c1.39,4.27,4.35,7.75,8.35,9.79c4,2.04,8.56,2.4,12.82,1.01
			c7.27-2.36,12.04-9.33,11.6-16.93l5.73-0.33c0.59,10.21-5.81,19.55-15.56,22.72C77.06,156.73,74.7,157.1,72.36,157.1z"/>
		<path class="st1" d="M139.9,136.3l-109.08,0l-6.86-21.16l88.3-64.04L139.9,136.3z M34.99,130.56l97.01,0l-22.77-70.17L30.7,117.34
			L34.99,130.56z"/>
		
			<rect x="47.32" y="99.62" transform="matrix(0.8098 -0.5866 0.5866 0.8098 -47.8079 57.4966)" class="st2" width="34.93" height="5.74"/>
		<path class="st1" d="M25.64,146.29L25.64,146.29c-1.67,0-3.27-0.38-4.76-1.14c-2.49-1.28-4.34-3.44-5.21-6.09l-5.58-17.22
			c-0.86-2.69-0.63-5.54,0.64-8.02c1.26-2.47,3.42-4.31,6.08-5.2c2.76-0.88,5.58-0.63,8.04,0.64c2.48,1.26,4.34,3.43,5.2,6.1
			l5.58,17.19c0.86,2.69,0.63,5.54-0.63,8.02c-1.28,2.5-3.45,4.35-6.1,5.21C27.83,146.12,26.74,146.29,25.64,146.29z M20.08,113.84
			c-0.5,0-1.01,0.08-1.5,0.24c-1.19,0.39-2.17,1.23-2.74,2.35c-0.58,1.13-0.68,2.42-0.29,3.65l5.57,17.19
			c0.4,1.2,1.24,2.18,2.37,2.76c0.67,0.34,1.39,0.52,2.15,0.52l0,0c0.5,0,1.01-0.08,1.5-0.24c1.19-0.39,2.17-1.22,2.75-2.36
			c0.57-1.12,0.67-2.42,0.28-3.65l-5.57-17.18c-0.39-1.21-1.23-2.19-2.36-2.76C21.55,114.01,20.83,113.84,20.08,113.84z"/>
		<path class="st1" d="M143.2,141.58L143.2,141.58c-1.65,0-3.31-0.4-4.77-1.16c-2.49-1.26-4.35-3.43-5.21-6.12l-25.21-77.68
			c-0.87-2.68-0.64-5.53,0.65-8.02c1.26-2.48,3.42-4.34,6.1-5.2c2.6-0.86,5.5-0.64,8,0.62c2.53,1.31,4.37,3.48,5.22,6.13
			l25.19,77.68c0.87,2.65,0.65,5.49-0.62,8.01c-1.28,2.49-3.44,4.33-6.1,5.21C145.38,141.41,144.29,141.58,143.2,141.58z M118,48.64
			c-0.5,0-0.99,0.08-1.47,0.24c-1.22,0.39-2.19,1.22-2.76,2.35c-0.59,1.14-0.69,2.42-0.3,3.63l25.21,77.68
			c0.39,1.22,1.23,2.2,2.35,2.77c1.14,0.59,2.44,0.68,3.64,0.3c1.19-0.4,2.18-1.24,2.76-2.37c0.57-1.13,0.67-2.42,0.28-3.62
			l-25.2-77.7c-0.39-1.2-1.23-2.19-2.37-2.78C119.48,48.82,118.75,48.64,118,48.64z"/>
	</g>
	<g>
		
			<rect x="150.64" y="78.41" transform="matrix(0.9512 -0.3086 0.3086 0.9512 -17.0583 54.6944)" class="st2" width="27.5" height="5.74"/>
		
			<rect x="161.67" y="85.63" transform="matrix(0.2931 -0.9561 0.9561 0.2931 21.302 227.555)" class="st2" width="5.74" height="27.49"/>
		
			<rect x="140.13" y="63.67" transform="matrix(0.6022 -0.7983 0.7983 0.6022 8.0879 149.3215)" class="st2" width="27.51" height="5.74"/>
	</g>
	<g>
		<g>
			<path class="st0" d="M163.08,70.14c0.28,0.86-0.19,1.78-1.04,2.06c-0.86,0.28-1.78-0.2-2.06-1.05c-0.28-0.86,0.19-1.78,1.05-2.07
				C161.89,68.82,162.81,69.28,163.08,70.14z"/>
			<path class="st0" d="M175.23,60.22c0.65,2.01-0.45,4.15-2.45,4.81c-2,0.66-4.15-0.45-4.8-2.45c-0.64-2,0.45-4.15,2.45-4.8
				C172.43,57.13,174.58,58.23,175.23,60.22z"/>
			<path class="st0" d="M144.79,51.28c0.37,1.15-0.26,2.39-1.4,2.76c-1.14,0.37-2.37-0.27-2.74-1.41c-0.37-1.14,0.25-2.37,1.39-2.74
				C143.19,49.52,144.42,50.14,144.79,51.28z"/>
			<path class="st0" d="M188.7,106.44c0.28,0.86-0.19,1.78-1.05,2.05c-0.86,0.29-1.78-0.19-2.06-1.04
				c-0.28-0.86,0.19-1.78,1.05-2.06C187.5,105.1,188.42,105.58,188.7,106.44z"/>
			<path class="st0" d="M190.19,85.7c0.83,2.57-0.58,5.33-3.16,6.17c-2.57,0.84-5.34-0.57-6.17-3.16c-0.84-2.57,0.57-5.33,3.14-6.17
				C186.59,81.71,189.35,83.11,190.19,85.7z"/>
			<path class="st0" d="M167.53,112.57c0.74,2.3-0.51,4.75-2.8,5.5c-2.29,0.74-4.74-0.52-5.5-2.81c-0.74-2.29,0.51-4.74,2.81-5.5
				C164.33,109.03,166.79,110.28,167.53,112.57z"/>
		</g>
	</g>
</g>
</svg>
